<svg xmlns="http://www.w3.org/2000/svg" width="375" viewBox="0 0 375 375" height="375" version="1.0"><g fill="#1C2120"><g><g><path d="M 90.21875 -32.546875 L 39.78125 -32.546875 L 26.453125 0 L 4.5625 0 L 65.859375 -144.28125 L 67.1875 -144.28125 L 128.484375 0 L 102.96875 0 Z M 82.796875 -51.578125 L 65.484375 -95.359375 L 47.59375 -51.578125 Z M 82.796875 -51.578125" transform="translate(57.12 213.979)"/></g></g></g><g fill="#1C2120"><g><g><path d="M 58.25 -138.578125 C 73.976562 -138.578125 86.285156 -134.640625 95.171875 -126.765625 C 104.054688 -118.898438 108.5 -107.988281 108.5 -94.03125 C 108.5 -86.03125 106.910156 -78.570312 103.734375 -71.65625 C 100.566406 -64.75 95.457031 -59.101562 88.40625 -54.71875 C 81.363281 -50.34375 72.328125 -48.15625 61.296875 -48.15625 L 41.296875 -48.15625 L 41.296875 0 L 19.03125 0 L 19.03125 -138.578125 Z M 61.296875 -69.46875 C 67.378906 -69.46875 72.289062 -70.769531 76.03125 -73.375 C 79.78125 -75.976562 82.445312 -79.148438 84.03125 -82.890625 C 85.625 -86.640625 86.421875 -90.226562 86.421875 -93.65625 C 86.421875 -99.488281 84.546875 -104.878906 80.796875 -109.828125 C 77.054688 -114.773438 70.742188 -117.25 61.859375 -117.25 L 41.296875 -117.25 L 41.296875 -69.46875 Z M 61.296875 -69.46875" transform="translate(201.586 213.979)"/></g></g></g><g fill="#1C2120"><g><g><path d="M 3.980469 -15.664062 C 4.585938 -17.828125 7.441406 -21.203125 9.78125 -21.636719 C 9.519531 -18.867188 6.144531 -16.789062 3.980469 -15.664062 Z M 0.0859375 -13.589844 C 0.0859375 -11.164062 0 -9 2.078125 -6.925781 C 3.546875 -5.453125 5.28125 -4.847656 7.097656 -4.847656 C 12.375 -4.847656 18.347656 -10.125 21.550781 -13.328125 C 22.328125 -14.28125 22.328125 -14.367188 22.070312 -15.664062 C 19.472656 -15.664062 20.859375 -15.320312 17.308594 -12.550781 C 16.703125 -12.117188 16.445312 -11.769531 15.753906 -11.25 C 14.019531 -9.953125 10.386719 -7.441406 7.355469 -7.441406 C 6.316406 -7.441406 5.28125 -7.789062 4.5 -8.570312 C 3.027344 -10.039062 3.203125 -11.425781 3.203125 -13.242188 C 5.886719 -13.414062 9 -15.925781 10.386719 -17.484375 C 13.070312 -20.859375 13.070312 -24.320312 9.261719 -24.320312 C 5.105469 -24.320312 0.0859375 -17.914062 0.0859375 -13.589844 Z M 0.0859375 -13.589844" transform="translate(69.586 286.166)"/></g></g></g><g fill="#1C2120"><g><g><path d="M 2.421875 -4.5 C 5.800781 -4.5 9.261719 -15.578125 12.117188 -17.484375 C 12.894531 -15.839844 11.683594 -12.375 13.414062 -7.183594 C 14.195312 -4.847656 15.664062 -2.511719 18.347656 -2.511719 C 18.867188 -2.511719 19.386719 -2.597656 19.992188 -2.769531 C 21.984375 -3.289062 24.753906 -6.75 25.964844 -8.308594 C 26.484375 -9 31.589844 -15.40625 28.214844 -15.40625 C 26.65625 -15.40625 22.070312 -5.105469 18.609375 -5.105469 C 15.40625 -5.105469 15.234375 -12.808594 15.234375 -14.972656 L 14.714844 -19.820312 C 14.28125 -20.773438 13.675781 -21.203125 13.070312 -21.203125 C 10.992188 -21.203125 8.394531 -16.789062 7.875 -15.839844 L 3.722656 -9.519531 C 3.722656 -16.269531 9.347656 -24.40625 5.539062 -24.40625 C 2.25 -24.40625 -3.117188 -4.5 2.421875 -4.5 Z M 2.421875 -4.5" transform="translate(88.366 286.166)"/></g></g></g><g fill="#1C2120"><g><g><path d="M 0 31.9375 C -6.925781 31.9375 -1.472656 19.386719 -0.519531 17.050781 C 0.867188 13.847656 4.847656 8.222656 6.75 5.800781 C 7.355469 4.761719 10.644531 0.519531 11.769531 0.171875 L 11.425781 5.191406 C 10.558594 12.289062 10.125 20.253906 6.144531 27.003906 C 4.933594 28.996094 2.25 31.9375 0 31.9375 Z M -0.953125 -7.355469 C -0.953125 -5.972656 -1.210938 -3.375 1.386719 -3.375 C 3.546875 -3.375 5.886719 -5.886719 7.097656 -7.097656 C 9 -8.828125 10.820312 -12.03125 11.769531 -12.375 C 11.769531 -8.828125 12.375 -4.414062 10.90625 -2.855469 C 5.625 2.769531 1.296875 8.308594 -2.164062 15.320312 C -4.585938 20.167969 -5.539062 22.675781 -5.539062 28.214844 C -5.539062 31.675781 -3.203125 34.359375 0 34.359375 C 3.027344 34.359375 6.835938 31.9375 10.214844 25.359375 C 12.894531 19.90625 15.320312 8.136719 15.234375 1.210938 C 15.234375 -0.347656 15.320312 -1.730469 15.492188 -3.375 C 15.664062 -4.847656 16.964844 -5.191406 17.914062 -5.972656 C 19.992188 -8.050781 27.175781 -13.070312 27.351562 -13.414062 C 27.695312 -14.109375 27.4375 -15.058594 26.742188 -15.058594 C 23.714844 -15.058594 17.050781 -8.050781 15.234375 -7.617188 C 15.234375 -10.644531 15.492188 -17.742188 12.894531 -17.742188 C 11.511719 -17.742188 10.644531 -15.839844 10.039062 -14.972656 C 9 -13.5 7.355469 -11.164062 6.230469 -9.953125 C 5.105469 -8.828125 3.460938 -6.492188 1.386719 -5.972656 C 1.386719 -10.300781 7.703125 -21.722656 12.722656 -21.722656 C 14.625 -21.722656 14.019531 -19.039062 16.097656 -18.867188 C 17.570312 -21.117188 16.011719 -24.0625 12.808594 -24.0625 C 6.664062 -24.0625 -0.953125 -12.984375 -0.953125 -7.355469 Z M -0.953125 -7.355469" transform="translate(114.329 286.166)"/></g></g></g><g fill="#1C2120"><g><g><path d="M 7.183594 0.347656 C 11.25 0.347656 14.539062 -3.460938 16.617188 -5.625 C 18.003906 -7.011719 23.195312 -12.808594 23.195312 -14.453125 C 23.195312 -15.234375 22.9375 -15.492188 22.589844 -15.492188 C 20.945312 -15.492188 16.359375 -9.347656 16.011719 -8.914062 C 14.714844 -7.269531 10.214844 -2.683594 7.441406 -2.683594 C 5.105469 -2.683594 4.15625 -7.789062 4.15625 -10.386719 C 4.15625 -19.214844 7.617188 -23.109375 3.636719 -23.109375 C 1.902344 -23.109375 1.039062 -19.214844 0.777344 -17.398438 C -0.171875 -12.984375 0 -7.011719 2.078125 -3.117188 C 3.027344 -1.472656 4.847656 0.347656 7.183594 0.347656 Z M 4.414062 -34.015625 C 4.414062 -32.109375 5.539062 -31.246094 6.75 -31.246094 C 8.480469 -31.246094 10.300781 -33.148438 8.65625 -36.351562 C 8.136719 -37.304688 7.53125 -37.648438 6.925781 -37.648438 C 5.625 -37.648438 4.414062 -36.003906 4.414062 -34.015625 Z M 4.414062 -34.015625" transform="translate(138.474 286.166)"/></g></g></g><g fill="#1C2120"><g><g><path d="M 2.421875 -4.5 C 5.800781 -4.5 9.261719 -15.578125 12.117188 -17.484375 C 12.894531 -15.839844 11.683594 -12.375 13.414062 -7.183594 C 14.195312 -4.847656 15.664062 -2.511719 18.347656 -2.511719 C 18.867188 -2.511719 19.386719 -2.597656 19.992188 -2.769531 C 21.984375 -3.289062 24.753906 -6.75 25.964844 -8.308594 C 26.484375 -9 31.589844 -15.40625 28.214844 -15.40625 C 26.65625 -15.40625 22.070312 -5.105469 18.609375 -5.105469 C 15.40625 -5.105469 15.234375 -12.808594 15.234375 -14.972656 L 14.714844 -19.820312 C 14.28125 -20.773438 13.675781 -21.203125 13.070312 -21.203125 C 10.992188 -21.203125 8.394531 -16.789062 7.875 -15.839844 L 3.722656 -9.519531 C 3.722656 -16.269531 9.347656 -24.40625 5.539062 -24.40625 C 2.25 -24.40625 -3.117188 -4.5 2.421875 -4.5 Z M 2.421875 -4.5" transform="translate(158.206 286.166)"/></g></g></g><g fill="#1C2120"><g><g><path d="M 3.980469 -15.664062 C 4.585938 -17.828125 7.441406 -21.203125 9.78125 -21.636719 C 9.519531 -18.867188 6.144531 -16.789062 3.980469 -15.664062 Z M 0.0859375 -13.589844 C 0.0859375 -11.164062 0 -9 2.078125 -6.925781 C 3.546875 -5.453125 5.28125 -4.847656 7.097656 -4.847656 C 12.375 -4.847656 18.347656 -10.125 21.550781 -13.328125 C 22.328125 -14.28125 22.328125 -14.367188 22.070312 -15.664062 C 19.472656 -15.664062 20.859375 -15.320312 17.308594 -12.550781 C 16.703125 -12.117188 16.445312 -11.769531 15.753906 -11.25 C 14.019531 -9.953125 10.386719 -7.441406 7.355469 -7.441406 C 6.316406 -7.441406 5.28125 -7.789062 4.5 -8.570312 C 3.027344 -10.039062 3.203125 -11.425781 3.203125 -13.242188 C 5.886719 -13.414062 9 -15.925781 10.386719 -17.484375 C 13.070312 -20.859375 13.070312 -24.320312 9.261719 -24.320312 C 5.105469 -24.320312 0.0859375 -17.914062 0.0859375 -13.589844 Z M 0.0859375 -13.589844" transform="translate(184.169 286.166)"/></g></g></g><g fill="#1C2120"><g><g><path d="M 3.980469 -15.664062 C 4.585938 -17.828125 7.441406 -21.203125 9.78125 -21.636719 C 9.519531 -18.867188 6.144531 -16.789062 3.980469 -15.664062 Z M 0.0859375 -13.589844 C 0.0859375 -11.164062 0 -9 2.078125 -6.925781 C 3.546875 -5.453125 5.28125 -4.847656 7.097656 -4.847656 C 12.375 -4.847656 18.347656 -10.125 21.550781 -13.328125 C 22.328125 -14.28125 22.328125 -14.367188 22.070312 -15.664062 C 19.472656 -15.664062 20.859375 -15.320312 17.308594 -12.550781 C 16.703125 -12.117188 16.445312 -11.769531 15.753906 -11.25 C 14.019531 -9.953125 10.386719 -7.441406 7.355469 -7.441406 C 6.316406 -7.441406 5.28125 -7.789062 4.5 -8.570312 C 3.027344 -10.039062 3.203125 -11.425781 3.203125 -13.242188 C 5.886719 -13.414062 9 -15.925781 10.386719 -17.484375 C 13.070312 -20.859375 13.070312 -24.320312 9.261719 -24.320312 C 5.105469 -24.320312 0.0859375 -17.914062 0.0859375 -13.589844 Z M 0.0859375 -13.589844" transform="translate(202.949 286.166)"/></g></g></g><g fill="#1C2120"><g><g><path d="M 1.210938 -0.347656 C 3.894531 -0.347656 2.855469 -3.289062 3.375 -5.539062 C 3.722656 -7.617188 4.5 -9.347656 5.367188 -10.820312 C 6.75 -13.070312 7.183594 -13.070312 10.472656 -13.070312 C 11.425781 -13.070312 12.722656 -12.984375 13.847656 -12.984375 C 15.578125 -12.984375 16.964844 -13.15625 16.964844 -14.367188 C 16.964844 -15.492188 14.28125 -15.664062 11.769531 -15.664062 C 10.300781 -15.664062 8.828125 -15.578125 8.050781 -15.578125 C 5.367188 -15.578125 4.847656 -13.933594 3.546875 -13.070312 C 3.546875 -14.195312 3.722656 -14.109375 3.722656 -15.320312 C 3.722656 -16.183594 3.722656 -17.222656 3.808594 -18.089844 C 4.066406 -20.511719 4.5 -22.15625 2.164062 -22.15625 C 0.257812 -22.15625 0.0859375 -13.15625 0.0859375 -11.597656 C 0.171875 -9.433594 0.0859375 -7.269531 0.171875 -5.191406 C 0.171875 -4.585938 -0.519531 -0.347656 1.210938 -0.347656 Z M 1.210938 -0.347656" transform="translate(221.728 286.166)"/></g></g></g><g fill="#1C2120"><g><g><path d="M 7.183594 0.347656 C 11.25 0.347656 14.539062 -3.460938 16.617188 -5.625 C 18.003906 -7.011719 23.195312 -12.808594 23.195312 -14.453125 C 23.195312 -15.234375 22.9375 -15.492188 22.589844 -15.492188 C 20.945312 -15.492188 16.359375 -9.347656 16.011719 -8.914062 C 14.714844 -7.269531 10.214844 -2.683594 7.441406 -2.683594 C 5.105469 -2.683594 4.15625 -7.789062 4.15625 -10.386719 C 4.15625 -19.214844 7.617188 -23.109375 3.636719 -23.109375 C 1.902344 -23.109375 1.039062 -19.214844 0.777344 -17.398438 C -0.171875 -12.984375 0 -7.011719 2.078125 -3.117188 C 3.027344 -1.472656 4.847656 0.347656 7.183594 0.347656 Z M 4.414062 -34.015625 C 4.414062 -32.109375 5.539062 -31.246094 6.75 -31.246094 C 8.480469 -31.246094 10.300781 -33.148438 8.65625 -36.351562 C 8.136719 -37.304688 7.53125 -37.648438 6.925781 -37.648438 C 5.625 -37.648438 4.414062 -36.003906 4.414062 -34.015625 Z M 4.414062 -34.015625" transform="translate(235.835 286.166)"/></g></g></g><g fill="#1C2120"><g><g><path d="M 2.421875 -4.5 C 5.800781 -4.5 9.261719 -15.578125 12.117188 -17.484375 C 12.894531 -15.839844 11.683594 -12.375 13.414062 -7.183594 C 14.195312 -4.847656 15.664062 -2.511719 18.347656 -2.511719 C 18.867188 -2.511719 19.386719 -2.597656 19.992188 -2.769531 C 21.984375 -3.289062 24.753906 -6.75 25.964844 -8.308594 C 26.484375 -9 31.589844 -15.40625 28.214844 -15.40625 C 26.65625 -15.40625 22.070312 -5.105469 18.609375 -5.105469 C 15.40625 -5.105469 15.234375 -12.808594 15.234375 -14.972656 L 14.714844 -19.820312 C 14.28125 -20.773438 13.675781 -21.203125 13.070312 -21.203125 C 10.992188 -21.203125 8.394531 -16.789062 7.875 -15.839844 L 3.722656 -9.519531 C 3.722656 -16.269531 9.347656 -24.40625 5.539062 -24.40625 C 2.25 -24.40625 -3.117188 -4.5 2.421875 -4.5 Z M 2.421875 -4.5" transform="translate(255.567 286.166)"/></g></g></g><g fill="#1C2120"><g><g><path d="M 0 31.9375 C -6.925781 31.9375 -1.472656 19.386719 -0.519531 17.050781 C 0.867188 13.847656 4.847656 8.222656 6.75 5.800781 C 7.355469 4.761719 10.644531 0.519531 11.769531 0.171875 L 11.425781 5.191406 C 10.558594 12.289062 10.125 20.253906 6.144531 27.003906 C 4.933594 28.996094 2.25 31.9375 0 31.9375 Z M -0.953125 -7.355469 C -0.953125 -5.972656 -1.210938 -3.375 1.386719 -3.375 C 3.546875 -3.375 5.886719 -5.886719 7.097656 -7.097656 C 9 -8.828125 10.820312 -12.03125 11.769531 -12.375 C 11.769531 -8.828125 12.375 -4.414062 10.90625 -2.855469 C 5.625 2.769531 1.296875 8.308594 -2.164062 15.320312 C -4.585938 20.167969 -5.539062 22.675781 -5.539062 28.214844 C -5.539062 31.675781 -3.203125 34.359375 0 34.359375 C 3.027344 34.359375 6.835938 31.9375 10.214844 25.359375 C 12.894531 19.90625 15.320312 8.136719 15.234375 1.210938 C 15.234375 -0.347656 15.320312 -1.730469 15.492188 -3.375 C 15.664062 -4.847656 16.964844 -5.191406 17.914062 -5.972656 C 19.992188 -8.050781 27.175781 -13.070312 27.351562 -13.414062 C 27.695312 -14.109375 27.4375 -15.058594 26.742188 -15.058594 C 23.714844 -15.058594 17.050781 -8.050781 15.234375 -7.617188 C 15.234375 -10.644531 15.492188 -17.742188 12.894531 -17.742188 C 11.511719 -17.742188 10.644531 -15.839844 10.039062 -14.972656 C 9 -13.5 7.355469 -11.164062 6.230469 -9.953125 C 5.105469 -8.828125 3.460938 -6.492188 1.386719 -5.972656 C 1.386719 -10.300781 7.703125 -21.722656 12.722656 -21.722656 C 14.625 -21.722656 14.019531 -19.039062 16.097656 -18.867188 C 17.570312 -21.117188 16.011719 -24.0625 12.808594 -24.0625 C 6.664062 -24.0625 -0.953125 -12.984375 -0.953125 -7.355469 Z M -0.953125 -7.355469" transform="translate(281.53 286.166)"/></g></g></g><path stroke-linecap="round" transform="matrix(2.2558 .01713 -.01709 2.24993 12.812 274.54)" fill="none" d="M 0.500826 0.000729911 L 21.445003 -0.000758907" stroke="#000"/><path stroke-linecap="round" transform="matrix(2.25587 0 0 2.25 316.032 273.79)" fill="none" d="M 0.499879 -0.000652232 L 21.445194 -0.000652232" stroke="#000"/></svg>